<svg width="226" height="112" viewBox="0 0 226 112" fill="none" xmlns="http://www.w3.org/2000/svg">
<path d="M62.488 63.549C61.5857 63.0986 57.1915 60.9841 56.3702 60.6823C55.549 60.3939 54.9527 60.243 54.3542 61.1327C53.7692 62.0003 52.0457 63.9861 51.5192 64.5652C50.9927 65.1443 50.4752 65.1886 49.5865 64.7959C48.6842 64.3455 45.802 63.4203 42.3797 60.3939C39.7067 58.0487 37.927 55.1599 37.3983 54.2702C36.8718 53.3915 37.3397 52.8945 37.7852 52.4552C38.1947 52.0514 38.6875 51.439 39.1443 50.9065C39.5785 50.374 39.718 50.0168 40.0352 49.4399C40.3277 48.8165 40.177 48.3306 39.9542 47.8912C39.7315 47.4519 37.9382 43.0965 37.189 41.3615C36.4735 39.6397 35.7242 39.8594 35.173 39.8594C34.6577 39.8128 34.0593 39.8128 33.463 39.8128C32.8668 39.8128 31.8925 40.0324 31.0712 40.8756C30.25 41.7653 27.9302 43.8908 27.9302 48.1908C27.9302 52.5018 31.141 56.6731 31.5865 57.2965C32.0432 57.8734 37.9023 66.7484 46.891 70.5624C49.0352 71.4522 50.7002 71.9847 52.0007 72.424C54.145 73.094 56.1025 73.0008 57.6483 72.7812C59.3583 72.5038 62.9447 70.6423 63.6962 68.5633C64.459 66.4711 64.459 64.7382 64.2362 64.3455C64.0135 63.9417 63.4285 63.722 62.5262 63.3293L62.488 63.549ZM46.1868 85.3438H46.1395C40.8183 85.3438 35.5578 83.9215 30.9633 81.2635L29.8855 80.6289L18.6355 83.5177L21.6595 72.7235L20.9328 71.6141C17.9673 66.957 16.3855 61.5832 16.3855 56.0607C16.3855 39.9526 29.7573 26.8131 46.2093 26.8131C54.1788 26.8131 61.6555 29.875 67.2805 35.4219C72.9055 40.9222 76.0105 48.2951 76.0105 56.1073C75.988 72.2043 62.6275 85.3438 46.198 85.3438H46.1868ZM71.5577 31.204C64.7132 24.6853 55.7133 21 46.1395 21C26.3935 21 10.315 36.7864 10.3038 56.1872C10.3038 62.3819 11.944 68.4258 15.085 73.7752L10 92L29.008 87.1121C34.246 89.8966 40.141 91.3876 46.1417 91.3987H46.153C65.9103 91.3987 81.9888 75.6123 82 56.1983C82 46.8041 78.2853 37.9623 71.5128 31.3172L71.5577 31.204Z" fill="url(#paint0_linear_542_60)"/>
<path d="M103.337 39.2918H109.279V47.8516C109.279 50.0335 108.741 51.7118 107.667 52.8867C106.601 54.0532 105.032 54.6322 102.951 54.6322C100.87 54.6322 99.2922 54.0532 98.218 52.8867C97.1522 51.7118 96.6235 50.0335 96.6235 47.8516V33.8203C96.6235 31.6384 97.1522 29.9684 98.218 28.802C99.2922 27.6271 100.87 27.0397 102.951 27.0397C105.032 27.0397 106.601 27.6271 107.667 28.802C108.741 29.9684 109.279 31.6384 109.279 33.8203V36.4386H105.267V33.5518C105.267 32.5783 105.066 31.8902 104.663 31.4874C104.269 31.0846 103.74 30.8832 103.069 30.8832C102.397 30.8832 101.86 31.0846 101.457 31.4874C101.063 31.8902 100.87 32.5783 100.87 33.5518V48.1201C100.87 49.0936 101.063 49.7775 101.457 50.1677C101.86 50.5496 102.397 50.7384 103.069 50.7384C103.74 50.7384 104.269 50.5496 104.663 50.1677C105.066 49.7775 105.267 49.0936 105.267 48.1201V43.1521H103.337V39.2918Z" fill="white"/>
<path d="M120.875 54.3301C120.829 54.1539 120.779 53.986 120.724 53.8266C120.665 53.6713 120.623 53.4825 120.59 53.2559C120.556 53.021 120.527 52.7272 120.506 52.3664C120.493 52.0097 120.489 51.5566 120.489 51.0069V46.7774C120.489 45.5144 120.271 44.6249 119.834 44.1088C119.398 43.5969 118.693 43.3367 117.72 43.3367H116.259V54.3301H112.013V27.3418H118.408C120.623 27.3418 122.222 27.8579 123.208 28.8859C124.202 29.9181 124.702 31.4706 124.702 33.5518V35.6665C124.702 38.4443 123.77 40.2653 121.916 41.138C122.998 41.5744 123.737 42.2919 124.131 43.2864C124.534 44.2724 124.735 45.4767 124.735 46.8949V51.0573C124.735 51.7202 124.756 52.2993 124.802 52.8028C124.857 53.3063 124.987 53.8182 125.188 54.3301H120.875ZM116.259 31.2021V39.4932H117.904C118.71 39.4932 119.335 39.2876 119.784 38.8722C120.229 38.461 120.455 37.7142 120.455 36.64V33.9714C120.455 32.9979 120.279 32.293 119.935 31.8566C119.587 31.4202 119.037 31.2021 118.29 31.2021H116.259Z" fill="white"/>
<path d="M131.558 27.3418V48.1537C131.558 49.1397 131.751 49.8279 132.145 50.2181C132.548 50.5999 133.085 50.7887 133.756 50.7887C134.428 50.7887 134.957 50.5999 135.351 50.2181C135.754 49.8279 135.955 49.1397 135.955 48.1537V27.3418H139.966V47.8851C139.966 50.0796 139.429 51.7622 138.355 52.937C137.289 54.1035 135.72 54.6826 133.639 54.6826C131.558 54.6826 129.98 54.1035 128.906 52.937C127.84 51.7622 127.312 50.0796 127.312 47.8851V27.3418H131.558Z" fill="white"/>
<path d="M149.102 27.3418C151.238 27.3418 152.828 27.9082 153.869 29.0369C154.909 30.1698 155.429 31.8231 155.429 34.0049V37.5295C155.429 39.7114 154.909 41.3688 153.869 42.4975C152.828 43.6304 151.238 44.1927 149.102 44.1927H147.105V54.3301H142.858V27.3418H149.102ZM147.105 31.2021V40.3324H149.102C149.773 40.3324 150.285 40.1562 150.646 39.7953C151.003 39.4387 151.183 38.7715 151.183 37.7981V33.7364C151.183 32.7629 151.003 32.1 150.646 31.7391C150.285 31.3825 149.773 31.2021 149.102 31.2021H147.105Z" fill="white"/>
<path d="M161.288 48.1201C161.288 49.0936 161.481 49.7817 161.876 50.1845C162.279 50.5873 162.816 50.7887 163.487 50.7887C164.158 50.7887 164.687 50.5873 165.081 50.1845C165.484 49.7817 165.686 49.0936 165.686 48.1201V33.5518C165.686 32.5783 165.484 31.8902 165.081 31.4874C164.687 31.0846 164.158 30.8832 163.487 30.8832C162.816 30.8832 162.279 31.0846 161.876 31.4874C161.481 31.8902 161.288 32.5783 161.288 33.5518V48.1201ZM157.042 33.8203C157.042 31.6384 157.596 29.9684 158.704 28.802C159.811 27.6271 161.406 27.0397 163.487 27.0397C165.568 27.0397 167.154 27.6271 168.254 28.802C169.361 29.9684 169.915 31.6384 169.915 33.8203V47.8516C169.915 50.0335 169.361 51.7118 168.254 52.8867C167.154 54.0532 165.568 54.6322 163.487 54.6322C161.406 54.6322 159.811 54.0532 158.704 52.8867C157.596 51.7118 157.042 50.0335 157.042 47.8516V33.8203Z" fill="white"/>
<path d="M182.415 34.777V54.3301H178.605V27.3418H183.926L188.273 43.5046V27.3418H192.049V54.3301H187.702L182.415 34.777Z" fill="white"/>
<path d="M198.997 48.1201C198.997 49.0936 199.19 49.7817 199.584 50.1845C199.987 50.5873 200.524 50.7887 201.195 50.7887C201.867 50.7887 202.395 50.5873 202.79 50.1845C203.193 49.7817 203.394 49.0936 203.394 48.1201V33.5518C203.394 32.5783 203.193 31.8902 202.79 31.4874C202.395 31.0846 201.867 30.8832 201.195 30.8832C200.524 30.8832 199.987 31.0846 199.584 31.4874C199.19 31.8902 198.997 32.5783 198.997 33.5518V48.1201ZM194.75 33.8203C194.75 31.6384 195.304 29.9684 196.412 28.802C197.52 27.6271 199.114 27.0397 201.195 27.0397C203.277 27.0397 204.863 27.6271 205.962 28.802C207.07 29.9684 207.624 31.6384 207.624 33.8203V47.8516C207.624 50.0335 207.07 51.7118 205.962 52.8867C204.863 54.0532 203.277 54.6322 201.195 54.6322C199.114 54.6322 197.52 54.0532 196.412 52.8867C195.304 51.7118 194.75 50.0335 194.75 47.8516V33.8203Z" fill="white"/>
<path d="M99.6155 72.9769L98.0714 87.3606H92.2642L89.2432 60.3723H93.372L95.6546 81.6541L97.6854 60.3723H101.781L103.895 81.8051L106.094 60.3723H109.803L106.799 87.3606H101.16L99.6155 72.9769Z" fill="#1ED760"/>
<path d="M116.17 87.3606H111.924V60.3723H116.17V71.9363H120.987V60.3723H125.301V87.3606H120.987V75.7966H116.17V87.3606Z" fill="#1ED760"/>
<path d="M142.117 87.3606H137.837L137.098 82.4597H131.896L131.157 87.3606H127.263L131.593 60.3723H137.787L142.117 87.3606ZM132.433 78.8008H136.528L134.48 65.1556L132.433 78.8008Z" fill="#1ED760"/>
<path d="M142.922 60.3723H156.03V64.2325H151.599V87.3606H147.353V64.2325H142.922V60.3723Z" fill="#1ED760"/>
<path d="M157.423 66.8508C157.423 64.6689 157.943 62.9989 158.984 61.8324C160.025 60.6576 161.586 60.0701 163.667 60.0701C165.748 60.0701 167.309 60.6576 168.349 61.8324C169.39 62.9989 169.91 64.6689 169.91 66.8508V67.8914H165.899V66.5823C165.899 65.6088 165.706 64.9207 165.328 64.5179C164.959 64.115 164.443 63.9136 163.784 63.9136C163.113 63.9136 162.584 64.115 162.207 64.5179C161.837 64.9207 161.653 65.6088 161.653 66.5823C161.653 67.5138 161.858 68.3278 162.274 69.0327C162.685 69.7376 163.201 70.4048 163.818 71.03C164.43 71.6593 165.093 72.2887 165.798 72.9265C166.503 73.5559 167.162 74.2441 167.779 74.9909C168.404 75.7294 168.92 76.577 169.323 77.5253C169.734 78.4778 169.944 79.5981 169.944 80.882C169.944 83.0639 169.411 84.7423 168.349 85.9172C167.284 87.0836 165.714 87.6627 163.633 87.6627C161.539 87.6627 159.962 87.0836 158.9 85.9172C157.834 84.7423 157.306 83.0639 157.306 80.882V79.0358H161.317V81.1506C161.317 82.124 161.51 82.808 161.904 83.1982C162.307 83.58 162.844 83.7688 163.516 83.7688C164.174 83.7688 164.707 83.58 165.11 83.1982C165.513 82.808 165.714 82.124 165.714 81.1506C165.714 80.2233 165.505 79.4051 165.093 78.7001C164.678 77.9952 164.162 77.3323 163.549 76.7029C162.932 76.0777 162.265 75.4525 161.552 74.8231C160.847 74.1853 160.184 73.4972 159.571 72.7587C158.955 72.0118 158.439 71.16 158.027 70.2076C157.625 69.2593 157.423 68.139 157.423 66.8508Z" fill="#1ED760"/>
<path d="M186.11 87.3606H181.83L181.091 82.4597H175.888L175.15 87.3606H171.256L175.586 60.3723H181.779L186.11 87.3606ZM176.425 78.8008H180.521L178.473 65.1556L176.425 78.8008Z" fill="#1ED760"/>
<path d="M194.317 60.3723C196.453 60.3723 198.043 60.9387 199.083 62.0674C200.124 63.2003 200.644 64.8535 200.644 67.0354V70.56C200.644 72.7419 200.124 74.3993 199.083 75.528C198.043 76.6609 196.453 77.2232 194.317 77.2232H192.32V87.3606H188.073V60.3723H194.317ZM192.32 64.2325V73.3629H194.317C194.988 73.3629 195.5 73.1867 195.861 72.8258C196.218 72.4692 196.398 71.802 196.398 70.8286V66.7669C196.398 65.7934 196.218 65.1305 195.861 64.7696C195.5 64.413 194.988 64.2325 194.317 64.2325H192.32Z" fill="#1ED760"/>
<path d="M208.852 60.3723C210.988 60.3723 212.578 60.9387 213.619 62.0674C214.66 63.2003 215.18 64.8535 215.18 67.0354V70.56C215.18 72.7419 214.66 74.3993 213.619 75.528C212.578 76.6609 210.988 77.2232 208.852 77.2232H206.855V87.3606H202.609V60.3723H208.852ZM206.855 64.2325V73.3629H208.852C209.524 73.3629 210.036 73.1867 210.397 72.8258C210.753 72.4692 210.934 71.802 210.934 70.8286V66.7669C210.934 65.7934 210.753 65.1305 210.397 64.7696C210.036 64.413 209.524 64.2325 208.852 64.2325H206.855Z" fill="#1ED760"/>
<defs>
<linearGradient id="paint0_linear_542_60" x1="46" y1="21" x2="46" y2="92" gradientUnits="userSpaceOnUse">
<stop stop-color="#1ED760"/>
</linearGradient>
</defs>
</svg>
