<svg width="48" height="48" viewBox="0 0 48 48" fill="none" xmlns="http://www.w3.org/2000/svg">
<rect x="0.5" y="0.5" width="47" height="47" rx="3.5" fill="black"/>
<rect x="0.5" y="0.5" width="47" height="47" rx="3.5" fill="url(#paint0_linear_431_146)"/>
<rect x="0.5" y="0.5" width="47" height="47" rx="3.5" stroke="url(#paint1_linear_431_146)"/>
<path d="M12.0186 23.6572L17.5043 18.8572L28.4757 19.5429L29.1614 30.5143L24.3614 36C24.3614 36 24.3621 31.8864 20.2471 27.7715C16.1322 23.6565 12.0186 23.6572 12.0186 23.6572Z" fill="#A0041E"/>
<path d="M12 36C12 36 11.9753 30.5287 14.0469 28.4571C16.1184 26.3856 21.6185 26.5282 21.6185 26.5282C21.6185 26.5282 21.6178 31.8857 19.5607 33.9428C17.5036 36 12 36 12 36Z" fill="#FFAC33"/>
<path d="M17.5036 33.2572C19.0184 33.2572 20.2465 32.0292 20.2465 30.5143C20.2465 28.9995 19.0184 27.7715 17.5036 27.7715C15.9888 27.7715 14.7607 28.9995 14.7607 30.5143C14.7607 32.0292 15.9888 33.2572 17.5036 33.2572Z" fill="#FFCC4D"/>
<path d="M36.0179 12C36.0179 12 29.1608 12 20.9322 18.8571C16.8179 22.2857 16.8179 28.4571 18.1894 29.8286C19.5608 31.2 25.7322 31.2 29.1608 27.0857C36.0179 18.8571 36.0179 12 36.0179 12Z" fill="#55ACEE"/>
<path d="M29.8463 15.4285C28.7334 15.4285 27.7802 16.0943 27.3496 17.0468C27.6938 16.8911 28.073 16.7999 28.4749 16.7999C29.9896 16.7999 31.2177 18.028 31.2177 19.5428C31.2177 19.9446 31.1265 20.3238 30.9716 20.6673C31.924 20.2374 32.5892 19.2842 32.5892 18.1713C32.5892 16.6566 31.361 15.4285 29.8463 15.4285Z" fill="black"/>
<path d="M16.8186 31.2C16.8186 31.2 16.8186 28.4571 17.5043 27.7714C18.19 27.0857 26.4193 20.2292 27.1043 20.9143C27.7893 21.5993 20.9322 29.8285 20.2465 30.5142C19.5608 31.2 16.8186 31.2 16.8186 31.2Z" fill="#A0041E"/>
<defs>
<linearGradient id="paint0_linear_431_146" x1="24" y1="0" x2="24" y2="48" gradientUnits="userSpaceOnUse">
<stop stop-color="#202024"/>
<stop offset="1" stop-color="#202024" stop-opacity="0.2"/>
</linearGradient>
<linearGradient id="paint1_linear_431_146" x1="24" y1="0" x2="24" y2="48" gradientUnits="userSpaceOnUse">
<stop stop-color="#323238"/>
<stop offset="1" stop-color="#323238" stop-opacity="0.3"/>
</linearGradient>
</defs>
</svg>
