<svg width="48" height="48" viewBox="0 0 48 48" fill="none" xmlns="http://www.w3.org/2000/svg">
<rect x="0.5" y="0.5" width="47" height="47" rx="3.5" fill="black"/>
<rect x="0.5" y="0.5" width="47" height="47" rx="3.5" fill="url(#paint0_linear_431_174)"/>
<rect x="0.5" y="0.5" width="47" height="47" rx="3.5" stroke="url(#paint1_linear_431_174)"/>
<path d="M13.6789 23.9998C12.9685 23.9998 12.2873 24.2819 11.785 24.7842C11.2827 25.2865 11.0005 25.9678 11.0005 26.6782V26.9758C11.0005 26.9758 11.0005 32.3326 18.1429 32.3326C25.2853 32.3326 25.2853 26.9758 25.2853 26.9758V26.6782C25.2853 25.9678 25.0031 25.2865 24.5008 24.7842C23.9985 24.2819 23.3173 23.9998 22.6069 23.9998H13.6789Z" fill="url(#paint2_linear_431_174)"/>
<path d="M13.6789 23.9998C12.9685 23.9998 12.2873 24.2819 11.785 24.7842C11.2827 25.2865 11.0005 25.9678 11.0005 26.6782V26.9758C11.0005 26.9758 11.0005 32.3326 18.1429 32.3326C25.2853 32.3326 25.2853 26.9758 25.2853 26.9758V26.6782C25.2853 25.9678 25.0031 25.2865 24.5008 24.7842C23.9985 24.2819 23.3173 23.9998 22.6069 23.9998H13.6789Z" fill="url(#paint3_linear_431_174)"/>
<path d="M13.6789 23.9998C12.9685 23.9998 12.2873 24.2819 11.785 24.7842C11.2827 25.2865 11.0005 25.9678 11.0005 26.6782V26.9758C11.0005 26.9758 11.0005 32.3326 18.1429 32.3326C25.2853 32.3326 25.2853 26.9758 25.2853 26.9758V26.6782C25.2853 25.9678 25.0031 25.2865 24.5008 24.7842C23.9985 24.2819 23.3173 23.9998 22.6069 23.9998H13.6789Z" fill="url(#paint4_radial_431_174)" fill-opacity="0.5"/>
<path d="M28.8569 21.619C29.804 21.619 30.7123 21.2427 31.3821 20.573C32.0518 19.9033 32.4281 18.9949 32.4281 18.0478C32.4281 17.1006 32.0518 16.1923 31.3821 15.5225C30.7123 14.8528 29.804 14.4766 28.8569 14.4766C27.9097 14.4766 27.0014 14.8528 26.3316 15.5225C25.6619 16.1923 25.2856 17.1006 25.2856 18.0478C25.2856 18.9949 25.6619 19.9033 26.3316 20.573C27.0014 21.2427 27.9097 21.619 28.8569 21.619Z" fill="url(#paint5_linear_431_174)"/>
<path d="M18.143 21.6189C19.4058 21.6189 20.617 21.1173 21.5099 20.2243C22.4029 19.3313 22.9046 18.1202 22.9046 16.8573C22.9046 15.5945 22.4029 14.3833 21.5099 13.4903C20.617 12.5974 19.4058 12.0957 18.143 12.0957C16.8801 12.0957 15.669 12.5974 14.776 13.4903C13.883 14.3833 13.3813 15.5945 13.3813 16.8573C13.3813 18.1202 13.883 19.3313 14.776 20.2243C15.669 21.1173 16.8801 21.6189 18.143 21.6189Z" fill="url(#paint6_linear_431_174)"/>
<path d="M29.4528 35.9062C30.8894 35.9058 32.2861 35.433 33.4275 34.5607C34.569 33.6883 35.3919 32.4648 35.7695 31.0787C36.147 29.6926 36.0583 28.2207 35.5169 26.89C34.9755 25.5593 34.0115 24.4435 32.7735 23.7147C31.5355 22.9858 30.0922 22.6843 28.6659 22.8566C27.2396 23.0289 25.9096 23.6654 24.8808 24.6681C23.8519 25.6708 23.1814 26.984 22.9725 28.4054C22.7635 29.8268 23.0278 31.2774 23.7246 32.5337L22.9318 35.136C22.9 35.2393 22.897 35.3492 22.9231 35.4541C22.9491 35.559 23.0032 35.6548 23.0795 35.7313C23.1559 35.8077 23.2516 35.862 23.3564 35.8882C23.4613 35.9144 23.5712 35.9115 23.6746 35.88L26.278 35.0872C27.2184 35.6097 28.3017 35.9062 29.4528 35.9062Z" fill="url(#paint7_linear_431_174)"/>
<path d="M27.0713 28.7627C26.9134 28.7627 26.762 28.7 26.6504 28.5883C26.5388 28.4767 26.4761 28.3253 26.4761 28.1675C26.4761 28.0096 26.5388 27.8582 26.6504 27.7466C26.762 27.635 26.9134 27.5723 27.0713 27.5723H31.8353C31.9931 27.5723 32.1445 27.635 32.2561 27.7466C32.3678 27.8582 32.4305 28.0096 32.4305 28.1675C32.4305 28.3253 32.3678 28.4767 32.2561 28.5883C32.1445 28.7 31.9931 28.7627 31.8353 28.7627H27.0713ZM29.4533 31.1435H27.0725C26.9146 31.1435 26.7632 31.0808 26.6516 30.9691C26.54 30.8575 26.4773 30.7061 26.4773 30.5483C26.4773 30.3904 26.54 30.239 26.6516 30.1274C26.7632 30.0158 26.9146 29.9531 27.0725 29.9531H29.4533C29.6111 29.9531 29.7625 30.0158 29.8741 30.1274C29.9858 30.239 30.0485 30.3904 30.0485 30.5483C30.0485 30.7061 29.9858 30.8575 29.8741 30.9691C29.7625 31.0808 29.6111 31.1435 29.4533 31.1435Z" fill="#212121"/>
<path d="M27.0713 28.7627C26.9134 28.7627 26.762 28.7 26.6504 28.5883C26.5388 28.4767 26.4761 28.3253 26.4761 28.1675C26.4761 28.0096 26.5388 27.8582 26.6504 27.7466C26.762 27.635 26.9134 27.5723 27.0713 27.5723H31.8353C31.9931 27.5723 32.1445 27.635 32.2561 27.7466C32.3678 27.8582 32.4305 28.0096 32.4305 28.1675C32.4305 28.3253 32.3678 28.4767 32.2561 28.5883C32.1445 28.7 31.9931 28.7627 31.8353 28.7627H27.0713ZM29.4533 31.1435H27.0725C26.9146 31.1435 26.7632 31.0808 26.6516 30.9691C26.54 30.8575 26.4773 30.7061 26.4773 30.5483C26.4773 30.3904 26.54 30.239 26.6516 30.1274C26.7632 30.0158 26.9146 29.9531 27.0725 29.9531H29.4533C29.6111 29.9531 29.7625 30.0158 29.8741 30.1274C29.9858 30.239 30.0485 30.3904 30.0485 30.5483C30.0485 30.7061 29.9858 30.8575 29.8741 30.9691C29.7625 31.0808 29.6111 31.1435 29.4533 31.1435Z" fill="url(#paint8_linear_431_174)"/>
<defs>
<linearGradient id="paint0_linear_431_174" x1="24" y1="0" x2="24" y2="48" gradientUnits="userSpaceOnUse">
<stop stop-color="#202024"/>
<stop offset="1" stop-color="#202024" stop-opacity="0.2"/>
</linearGradient>
<linearGradient id="paint1_linear_431_174" x1="24" y1="0" x2="24" y2="48" gradientUnits="userSpaceOnUse">
<stop stop-color="#323238"/>
<stop offset="1" stop-color="#323238" stop-opacity="0.3"/>
</linearGradient>
<linearGradient id="paint2_linear_431_174" x1="14.3979" y1="25.108" x2="17.4406" y2="33.4361" gradientUnits="userSpaceOnUse">
<stop offset="0.125" stop-color="#BD96FF"/>
<stop offset="1" stop-color="#9C6CFE"/>
</linearGradient>
<linearGradient id="paint3_linear_431_174" x1="18.1429" y1="23.0081" x2="22.4367" y2="36.7621" gradientUnits="userSpaceOnUse">
<stop stop-color="#885EDB" stop-opacity="0"/>
<stop offset="1" stop-color="#E362F8"/>
</linearGradient>
<radialGradient id="paint4_radial_431_174" cx="0" cy="0" r="1" gradientUnits="userSpaceOnUse" gradientTransform="translate(26.7138 29.2078) rotate(66.4985) scale(6.65266 6.56819)">
<stop stop-color="#30116E"/>
<stop offset="0.268" stop-color="#30116E" stop-opacity="0.812"/>
<stop offset="1" stop-color="#30116E" stop-opacity="0"/>
</radialGradient>
<linearGradient id="paint5_linear_431_174" x1="26.9844" y1="15.4265" x2="30.6246" y2="21.2381" gradientUnits="userSpaceOnUse">
<stop offset="0.125" stop-color="#9C6CFE"/>
<stop offset="1" stop-color="#7A41DC"/>
</linearGradient>
<linearGradient id="paint6_linear_431_174" x1="15.6455" y1="13.3611" x2="20.5" y2="21.1118" gradientUnits="userSpaceOnUse">
<stop offset="0.125" stop-color="#BD96FF"/>
<stop offset="1" stop-color="#9C6CFE"/>
</linearGradient>
<linearGradient id="paint7_linear_431_174" x1="23.3722" y1="25.2651" x2="34.806" y2="44.7592" gradientUnits="userSpaceOnUse">
<stop stop-color="#0FAFFF"/>
<stop offset="1" stop-color="#CC23D1"/>
</linearGradient>
<linearGradient id="paint8_linear_431_174" x1="26.9975" y1="27.6354" x2="27.3594" y2="31.522" gradientUnits="userSpaceOnUse">
<stop stop-color="#FDFDFD"/>
<stop offset="1" stop-color="#CCEAFF"/>
</linearGradient>
</defs>
</svg>
