<svg width="48" height="48" viewBox="0 0 48 48" fill="none" xmlns="http://www.w3.org/2000/svg">
<rect x="0.5" y="0.5" width="47" height="47" rx="3.5" fill="black"/>
<rect x="0.5" y="0.5" width="47" height="47" rx="3.5" fill="url(#paint0_linear_431_188)"/>
<rect x="0.5" y="0.5" width="47" height="47" rx="3.5" stroke="url(#paint1_linear_431_188)"/>
<path d="M25.6068 34.4485C25.7147 34.3595 25.8043 34.2561 25.8664 34.1071C25.9414 33.9209 25.9158 33.745 25.8975 33.5485C25.8829 33.3809 25.8975 33.3085 25.9981 33.1926C26.1114 33.0623 26.2266 32.9443 26.2467 32.7519C26.2614 32.6091 26.2339 32.4726 26.2102 32.336C26.1974 32.2864 26.1901 32.2346 26.1901 32.1829C26.2157 32.0733 26.3382 31.9967 26.4058 31.9222C26.5813 31.7298 26.744 31.4629 26.7952 31.1918C26.8281 31.0222 26.8208 30.778 26.7258 30.6353C26.585 30.4242 26.3967 30.5091 26.2175 30.6001C26.159 30.6291 26.1078 30.6663 26.0493 30.6973C24.9376 31.3077 23.6285 31.3077 22.4493 30.9705C22.1494 30.8856 21.8496 30.7822 21.5698 30.6332C21.3486 30.5173 21.0359 30.387 20.8842 30.6973C20.7562 30.958 20.822 31.3056 20.9153 31.5684C20.9701 31.7215 21.089 31.8539 21.1877 31.9719C21.2828 32.0857 21.3248 32.1436 21.2974 32.2884C21.2718 32.4209 21.2901 32.5326 21.3011 32.6671C21.3175 32.8491 21.3395 33.0229 21.4437 33.1698C21.5442 33.3126 21.6941 33.4223 21.7837 33.5733C21.8624 33.7037 21.8605 33.8795 21.9062 34.0264C21.983 34.2664 22.1677 34.5209 22.3542 34.6658C22.5663 34.8292 22.8515 34.8189 23.0362 35.034C23.2793 35.3196 23.6267 35.5265 23.9851 35.5016C24.4239 35.4727 24.6597 35.0878 24.9943 34.8271C25.1241 34.7258 25.2869 34.6823 25.424 34.5871C25.4861 34.5395 25.5483 34.4961 25.6068 34.4485Z" fill="#78A3AD"/>
<path d="M30.813 19.3546C30.8075 15.5648 27.6698 12.4983 23.803 12.5037C19.938 12.509 16.8075 15.5844 16.813 19.3725C16.8148 21.0242 17.6438 22.4781 18.5473 23.8376C19.4963 25.2648 20.1417 26.6386 20.8579 28.1692C21.2779 29.069 22.4232 29.42 23.423 29.4877C24.4011 29.5518 25.6428 29.4431 26.4608 28.7874C27.7425 27.7611 27.7716 25.7976 28.6133 24.488C29.644 22.8879 30.8148 21.3378 30.813 19.3546Z" fill="#FCC21B"/>
<defs>
<linearGradient id="paint0_linear_431_188" x1="24" y1="0" x2="24" y2="48" gradientUnits="userSpaceOnUse">
<stop stop-color="#202024"/>
<stop offset="1" stop-color="#202024" stop-opacity="0.2"/>
</linearGradient>
<linearGradient id="paint1_linear_431_188" x1="24" y1="0" x2="24" y2="48" gradientUnits="userSpaceOnUse">
<stop stop-color="#323238"/>
<stop offset="1" stop-color="#323238" stop-opacity="0.3"/>
</linearGradient>
</defs>
</svg>
