<svg width="29" height="28" viewBox="0 0 29 28" fill="none" xmlns="http://www.w3.org/2000/svg">
<path d="M9.89753 2.33337H19.6975C23.4309 2.33337 26.4642 5.36671 26.4642 9.10004V18.9C26.4642 20.6947 25.7513 22.4158 24.4823 23.6848C23.2133 24.9538 21.4922 25.6667 19.6975 25.6667H9.89753C6.16419 25.6667 3.13086 22.6334 3.13086 18.9V9.10004C3.13086 7.30541 3.84377 5.58428 5.11277 4.31529C6.38177 3.04629 8.10289 2.33337 9.89753 2.33337ZM9.66419 4.66671C8.55028 4.66671 7.482 5.10921 6.69434 5.89686C5.90669 6.68451 5.46419 7.7528 5.46419 8.86671V19.1334C5.46419 21.455 7.34253 23.3334 9.66419 23.3334H19.9309C21.0448 23.3334 22.1131 22.8909 22.9007 22.1032C23.6884 21.3156 24.1309 20.2473 24.1309 19.1334V8.86671C24.1309 6.54504 22.2525 4.66671 19.9309 4.66671H9.66419ZM20.9225 6.41671C21.3093 6.41671 21.6802 6.57035 21.9537 6.84384C22.2272 7.11733 22.3809 7.48827 22.3809 7.87504C22.3809 8.26182 22.2272 8.63275 21.9537 8.90624C21.6802 9.17973 21.3093 9.33337 20.9225 9.33337C20.5358 9.33337 20.1648 9.17973 19.8913 8.90624C19.6178 8.63275 19.4642 8.26182 19.4642 7.87504C19.4642 7.48827 19.6178 7.11733 19.8913 6.84384C20.1648 6.57035 20.5358 6.41671 20.9225 6.41671ZM14.7975 8.16671C16.3446 8.16671 17.8284 8.78129 18.9223 9.87525C20.0163 10.9692 20.6309 12.4529 20.6309 14C20.6309 15.5471 20.0163 17.0309 18.9223 18.1248C17.8284 19.2188 16.3446 19.8334 14.7975 19.8334C13.2504 19.8334 11.7667 19.2188 10.6727 18.1248C9.57877 17.0309 8.96419 15.5471 8.96419 14C8.96419 12.4529 9.57877 10.9692 10.6727 9.87525C11.7667 8.78129 13.2504 8.16671 14.7975 8.16671ZM14.7975 10.5C13.8693 10.5 12.979 10.8688 12.3227 11.5252C11.6663 12.1815 11.2975 13.0718 11.2975 14C11.2975 14.9283 11.6663 15.8185 12.3227 16.4749C12.979 17.1313 13.8693 17.5 14.7975 17.5C15.7258 17.5 16.616 17.1313 17.2724 16.4749C17.9288 15.8185 18.2975 14.9283 18.2975 14C18.2975 13.0718 17.9288 12.1815 17.2724 11.5252C16.616 10.8688 15.7258 10.5 14.7975 10.5Z" fill="url(#paint0_linear_422_42)"/>
<defs>
<linearGradient id="paint0_linear_422_42" x1="5.04492" y1="7.57147" x2="63.7888" y2="14.9533" gradientUnits="userSpaceOnUse">
<stop offset="1" stop-color="white"/>
</linearGradient>
</defs>
</svg>
