<svg width="45" height="45" viewBox="0 0 45 45" fill="none" xmlns="http://www.w3.org/2000/svg">
<g clip-path="url(#clip0_535_2)">
<path d="M22.5 0C10.0737 0 0 10.0738 0 22.5C0 34.927 10.0738 45 22.5 45C34.9272 45 45 34.927 45 22.5C45 10.0747 34.9272 0.00123047 22.4996 0.00123047L22.5 0ZM32.8182 32.4517C32.4151 33.1126 31.5499 33.3221 30.889 32.9164C25.6062 29.6896 18.9561 28.9587 11.1241 30.7482C10.7615 30.8308 10.3808 30.7659 10.066 30.5679C9.75109 30.3699 9.52776 30.0549 9.44508 29.6923C9.40391 29.5127 9.39854 29.3269 9.42927 29.1453C9.46001 28.9637 9.52626 28.7899 9.62422 28.6339C9.72218 28.478 9.84993 28.3429 10.0002 28.2363C10.1504 28.1298 10.3202 28.0539 10.4998 28.013C19.0709 26.0548 26.4226 26.8979 32.3534 30.5225C33.0144 30.9282 33.2239 31.7907 32.8182 32.4517ZM35.5721 26.3252C35.0641 27.1505 33.9841 27.4112 33.1594 26.9033C27.1114 23.1859 17.8922 22.1092 10.7388 24.2807C9.81105 24.5609 8.83125 24.0381 8.54965 23.1119C8.27016 22.1841 8.79328 21.2061 9.71947 20.9241C17.8907 18.4446 28.0491 19.6457 34.9945 23.9136C35.8193 24.4216 36.08 25.5015 35.5721 26.3252ZM35.8086 19.9455C28.5569 15.6382 16.5927 15.242 9.6692 17.3436C8.55738 17.6808 7.38158 17.0531 7.04479 15.9413C6.70781 14.8289 7.33482 13.654 8.44752 13.316C16.3951 10.9032 29.6075 11.3695 37.9563 16.3259C38.9586 16.9193 39.2862 18.2109 38.6924 19.2096C38.1015 20.2097 36.8063 20.5393 35.8096 19.9455H35.8086Z" fill="#1ED760"/>
</g>
<defs>
<clipPath id="clip0_535_2">
<rect width="45" height="45" fill="white"/>
</clipPath>
</defs>
</svg>
