<svg width="128" height="129" viewBox="0 0 128 129" fill="none" xmlns="http://www.w3.org/2000/svg">
<g clip-path="url(#clip0_523_2)">
<path d="M2.73131 63.728C2.72831 74.5665 5.56031 85.1495 10.9453 94.4775L2.21631 126.349L34.8323 117.797C43.8535 122.707 53.961 125.281 64.2323 125.282H64.2593C98.1668 125.282 125.768 97.69 125.783 63.7765C125.789 47.343 119.395 31.89 107.778 20.264C96.1633 8.63901 80.7158 2.23351 64.2568 2.22601C30.3453 2.22601 2.74581 29.816 2.73181 63.728" fill="url(#paint0_linear_523_2)"/>
<path d="M0.535 63.708C0.5315 74.9365 3.465 85.898 9.042 95.56L0 128.574L33.7855 119.715C43.0945 124.79 53.5755 127.466 64.2405 127.47H64.268C99.392 127.47 127.985 98.8865 128 63.759C128.006 46.735 121.382 30.7265 109.35 18.684C97.3165 6.643 81.3165 0.007 64.268 0C29.138 0 0.549 28.58 0.535 63.708ZM20.6555 93.896L19.394 91.8935C14.091 83.4615 11.292 73.7175 11.296 63.712C11.307 34.5145 35.069 10.76 64.288 10.76C78.438 10.766 91.736 16.282 101.738 26.29C111.739 36.299 117.243 49.604 117.24 63.755C117.227 92.9525 93.464 116.71 64.268 116.71H64.247C54.7405 116.705 45.417 114.152 37.286 109.327L35.351 108.18L15.302 113.437L20.6555 93.896Z" fill="url(#paint1_linear_523_2)"/>
<path d="M48.3388 37.074C47.1458 34.4225 45.8903 34.369 44.7558 34.3225C43.8268 34.2825 42.7648 34.2855 41.7038 34.2855C40.6418 34.2855 38.9163 34.685 37.4578 36.2775C35.9978 37.8715 31.8838 41.7235 31.8838 49.558C31.8838 57.3925 37.5903 64.9645 38.3858 66.028C39.1823 67.0895 49.4023 83.6815 65.5883 90.0645C79.0403 95.369 81.7778 94.314 84.6973 94.048C87.6173 93.783 94.1193 90.197 95.4458 86.4785C96.7733 82.7605 96.7733 79.5735 96.3753 78.9075C95.9773 78.244 94.9153 77.8455 93.3228 77.0495C91.7303 76.2535 83.9008 72.4005 82.4413 71.869C80.9813 71.338 79.9198 71.073 78.8578 72.6675C77.7958 74.2595 74.7463 77.8455 73.8168 78.9075C72.8883 79.972 71.9588 80.1045 70.3668 79.308C68.7733 78.509 63.6448 76.8295 57.5603 71.405C52.8263 67.184 49.6303 61.9715 48.7013 60.377C47.7723 58.785 48.6018 57.922 49.4003 57.1285C50.1158 56.415 50.9933 55.269 51.7903 54.3395C52.5843 53.4095 52.8493 52.746 53.3803 51.684C53.9118 50.621 53.6458 49.691 53.2483 48.8945C52.8493 48.098 49.7548 40.2225 48.3388 37.074Z" fill="white"/>
</g>
<defs>
<linearGradient id="paint0_linear_523_2" x1="6180.54" y1="12414.5" x2="6180.54" y2="2.22601" gradientUnits="userSpaceOnUse">
<stop stop-color="#1FAF38"/>
<stop offset="1" stop-color="#60D669"/>
</linearGradient>
<linearGradient id="paint1_linear_523_2" x1="6400" y1="12857.4" x2="6400" y2="0" gradientUnits="userSpaceOnUse">
<stop stop-color="#F9F9F9"/>
<stop offset="1" stop-color="white"/>
</linearGradient>
<clipPath id="clip0_523_2">
<rect width="128" height="129" fill="white"/>
</clipPath>
</defs>
</svg>
