<svg width="22" height="22" viewBox="0 0 22 22" fill="none" xmlns="http://www.w3.org/2000/svg">
<path d="M1 11C1 5.48 5.48 1 11 1C16.52 1 21 5.48 21 11C21 16.52 16.52 21 11 21C5.48 21 1 16.52 1 11Z" stroke="white" stroke-width="2" stroke-linecap="round" stroke-linejoin="round"/>
<path d="M7.62988 14.31C9.80988 13.73 12.1199 13.97 14.1299 15" stroke="white" stroke-width="2" stroke-linecap="round" stroke-linejoin="round"/>
<path d="M6.5 11.07C7.6 10.7 8.78 10.5 10 10.5C12.02 10.5 13.92 11.05 15.55 12" stroke="white" stroke-width="2" stroke-linecap="round" stroke-linejoin="round"/>
<path d="M6 7.91C7.38 7.32 8.9 7 10.5 7C12.91 7 15.15 7.74 17 9" stroke="white" stroke-width="2" stroke-linecap="round" stroke-linejoin="round"/>
</svg>
