<svg width="26" height="26" viewBox="0 0 26 26" fill="none" xmlns="http://www.w3.org/2000/svg">
<path d="M12.8988 0.101196C20.0228 0.101196 25.7975 5.87598 25.7975 13C25.7975 20.124 20.0228 25.8987 12.8988 25.8987C5.77478 25.8987 0 20.124 0 13C0 5.87598 5.77478 0.101196 12.8988 0.101196ZM12.8988 2.68095C10.162 2.68095 7.53732 3.76813 5.60213 5.70332C3.66693 7.63851 2.57975 10.2632 2.57975 13C2.57975 15.7367 3.66693 18.3614 5.60213 20.2966C7.53732 22.2318 10.162 23.319 12.8988 23.319C15.6355 23.319 18.2602 22.2318 20.1954 20.2966C22.1306 18.3614 23.2178 15.7367 23.2178 13C23.2178 10.2632 22.1306 7.63851 20.1954 5.70332C18.2602 3.76813 15.6355 2.68095 12.8988 2.68095ZM7.38842 15.7229C9.21746 15.3024 11.1742 15.3076 12.8665 15.5694C14.5124 15.8248 16.1093 16.3562 17.0935 17.1611C17.3487 17.3684 17.5151 17.6653 17.5587 17.9912C17.6024 18.3171 17.5199 18.6473 17.3282 18.9144C17.1365 19.1815 16.8501 19.3654 16.5274 19.4284C16.2047 19.4913 15.8701 19.4287 15.592 19.2533L15.4605 19.1591C15.0013 18.7825 13.941 18.3465 12.4705 18.1195C11.0452 17.8976 9.42384 17.9028 7.96628 18.2369C7.80032 18.2773 7.62798 18.2844 7.45926 18.2577C7.29054 18.231 7.12879 18.1711 6.98342 18.0814C6.83805 17.9917 6.71195 17.874 6.61243 17.7352C6.51291 17.5963 6.44195 17.4391 6.40369 17.2727C6.36542 17.1062 6.3606 16.9338 6.38951 16.7654C6.41842 16.597 6.48048 16.4361 6.57209 16.2919C6.6637 16.1478 6.78304 16.0232 6.92317 15.9255C7.06331 15.8278 7.22145 15.759 7.38842 15.7229ZM6.71768 12.2002C10.9214 11.0277 15.8113 11.6907 18.7948 13.5224C19.0864 13.7015 19.295 13.9891 19.3746 14.3219C19.4542 14.6548 19.3983 15.0056 19.2192 15.2972C19.0401 15.5889 18.7525 15.7974 18.4196 15.877C18.0868 15.9566 17.7359 15.9007 17.4443 15.7216C15.1444 14.3092 11.0078 13.6823 7.40906 14.6845C7.24428 14.7355 7.07096 14.7529 6.89934 14.7357C6.72773 14.7184 6.56131 14.667 6.40993 14.5843C6.25856 14.5017 6.12529 14.3895 6.01802 14.2545C5.91075 14.1194 5.83166 13.9642 5.78541 13.798C5.73917 13.6319 5.72672 13.4581 5.7488 13.2871C5.77088 13.116 5.82704 12.9511 5.91396 12.8022C6.00088 12.6532 6.1168 12.5232 6.25484 12.4198C6.39289 12.3164 6.55028 12.2417 6.71768 12.2002ZM6.10112 8.50346C10.9511 7.14909 15.77 7.85207 19.859 9.61791C20.1703 9.75534 20.4147 10.0102 20.5389 10.3271C20.6632 10.6439 20.6571 10.997 20.5222 11.3094C20.3873 11.6218 20.1343 11.8682 19.8185 11.995C19.5027 12.1218 19.1496 12.1186 18.8361 11.9861C15.1857 10.4086 10.9756 9.82171 6.79507 10.9878C6.63099 11.0365 6.45885 11.0521 6.28867 11.0337C6.11849 11.0152 5.95369 10.9631 5.80387 10.8803C5.65405 10.7975 5.5222 10.6858 5.41601 10.5515C5.30982 10.4172 5.23142 10.2632 5.18536 10.0983C5.13931 9.93347 5.12653 9.76109 5.14778 9.59124C5.16902 9.4214 5.22385 9.25747 5.30909 9.10903C5.39432 8.96059 5.50825 8.83059 5.64423 8.72662C5.78021 8.62266 5.93552 8.54679 6.10112 8.50346Z" fill="url(#paint0_linear_422_44)"/>
<defs>
<linearGradient id="paint0_linear_422_44" x1="2.1162" y1="5.89248" x2="67.064" y2="14.0539" gradientUnits="userSpaceOnUse">
<stop offset="1" stop-color="white"/>
</linearGradient>
</defs>
</svg>
