<svg width="28" height="28" viewBox="0 0 28 28" fill="none" xmlns="http://www.w3.org/2000/svg">
<path d="M19.4725 6.79C18.7037 5.87945 18.2799 4.7103 18.28 3.5H14.8038V17.9667C14.7775 18.7497 14.459 19.4916 13.9154 20.0357C13.3718 20.5799 12.6456 20.8838 11.89 20.8833C10.2925 20.8833 8.96504 19.53 8.96504 17.85C8.96504 15.8433 10.8325 14.3383 12.7563 14.9567V11.27C8.87504 10.7333 5.47754 13.86 5.47754 17.85C5.47754 21.735 8.58254 24.5 11.8788 24.5C15.4113 24.5 18.28 21.525 18.28 17.85V10.5117C19.6897 11.5615 21.3821 12.1248 23.1175 12.1217V8.51667C23.1175 8.51667 21.0025 8.62167 19.4725 6.79Z" fill="url(#paint0_linear_422_40)"/>
<defs>
<linearGradient id="paint0_linear_422_40" x1="6.92457" y1="8.21429" x2="51.5392" y2="12.9236" gradientUnits="userSpaceOnUse">
<stop offset="1" stop-color="white"/>
</linearGradient>
</defs>
</svg>
